<svg xmlns="http://www.w3.org/2000/svg"><symbol id="advantage-1-illustration" viewBox="0 0 94.9 94.2"><title>advantage-1-illustration</title><path d="M90.3 28.4a47.2 47.2 0 0 0-8.5-13.1l-2 3.8a43.2 43.2 0 0 1 6.4 10zM90 43.6c.1 1.2.2 2.3.2 3.5a43.1 43.1 0 0 1-43.1 43.1h-2.4a7.5 7.5 0 0 1 .2 1.8 6.6 6.6 0 0 1-.4 2.2H47a47 47 0 0 0 46.7-53.3 38.3 38.3 0 0 1-3.7 2.7zM4 47.1A43.1 43.1 0 0 1 68.7 9.8L72 7.2a47.1 47.1 0 1 0-42.3 83.6 18.2 18.2 0 0 1-.6-4.6A43.1 43.1 0 0 1 4 47.1z" fill="#826550"/><path d="M38.8 84.9c7.7-2.7 16.3-9.7 14.5-19.8-.9-5.1-4.5-5-7.3-9.3 14.4-12 24.2-28.7 33-46.3h-2c-7.4 5.7-21.9 17-28.4 26.4-2.6 3.8-4.6 9.3-7.3 13.9-4.5 7.7-15.1 21.2-6.6 31.1-1.4 4.6-1.2 12.4 4 12.6 3.3-1.7-1.3-4.6.1-8.6zm8.3-38.8a2.6 2.6 0 1 1-2.6 2.6 2.6 2.6 0 0 1 2.6-2.6zM36.8 75c-1.9-9 7-17 11.9-9.3.2 7.5-6.2 15.8-11.9 9.3z" fill="#826550"/><path d="M56 51.2c14-5.2 30.6-7.8 39-18.5-9.4 1.4-18.1 3.5-27.8 4.6-2.1 6.3-7 9.7-11.2 13.9zM12.3 40c-4.2 12.2 8.5 16 21.8 13.8 3.8-4.8 5.8-10 2-15.9-4.9-7.4-20.9-6.3-23.8 2.1zm5.3 7.3C12.5 36.4 30.5 36.2 32.2 42c2.1 7.6-9.1 8-14.6 5.2z" fill="#826550"/></symbol><symbol id="advantage-2-illustration" viewBox="0 0 94.2 88.6"><title>advantage-2-illustration</title><path d="M87.2 22.4l-1.7 5.2a43 43 0 0 1-13 54.2 12.8 12.8 0 0 1 3.1 2.7 47.1 47.1 0 0 0 11.6-62.1zM9.5 70.3h1.3A43.1 43.1 0 0 1 66 8.4a22.3 22.3 0 0 1 2.4-3.3A47.1 47.1 0 0 0 6.2 70.5h3.3z" fill="#826550"/><path d="M53.5 82c.4-6.1-.9-14 .7-19.1 4.5-.1 9.6.4 13.2-.7 8.2-14.8 12-34 18.4-50.6V9c-.8-3-3.9-3.7-6.7-4.6h-.7C67.8 7.9 66.5 20.5 64 32.1c-15.8-4.2-32.3-.1-32.9 15.1-4.5.1-8 1.2-9.9 3.9-.6 6.7 1.6 10.7 6.6 11.8q-1.9 8-7.2 12.5c-6.4.6-15.6-1.6-19.1 2V80c3.2 3.9 12.9 1.2 19.1 2 6.6-3.9 8.5-12.6 11.8-19.7 4.7.4 10.9-.8 14.5.7v19.7c-7.8.5-15.4 1.2-19.1 5.9h44.7c-3.2-5.3-12.4-4.6-19-6.6zM37.7 47.2c.7-11.7 15.3-11.7 25.6-8.6.1 4.7-.5 10.2 1.3 13.2-7-.9-17-4.4-26.9-4.6z" fill="#826550"/></symbol><symbol id="advantage-3-illustration" viewBox="0 0 94.2 92"><title>advantage-3-illustration</title><circle cx="47.1" cy="17.3" r="9.1" fill="#826550"/><path d="M67.5 26.4H26.7a2.8 2.8 0 0 0-2.8 2.8v4.5a2.8 2.8 0 0 0 2.8 2.8h.8v45.4h-.8a2.8 2.8 0 0 0-2.8 2.8v4.5a2.8 2.8 0 0 0 2.8 2.8h40.8a2.8 2.8 0 0 0 2.8-2.8v-4.5a2.8 2.8 0 0 0-2.8-2.8h-.9V36.5h.8a2.8 2.8 0 0 0 2.8-2.8v-4.5a2.8 2.8 0 0 0-2.7-2.8zM33.7 36.5h13.2L33.7 49.7V36.5zm26.8 45.4H47l13.5-13.5v13.5zm0-28.7L33.7 80V64.9l26.8-26.8v15.1z" fill="#826550"/><path d="M47.1 0a47.1 47.1 0 0 0-28.2 84.8 7.8 7.8 0 0 1 1.2-4.1 43.1 43.1 0 1 1 54 0 7.8 7.8 0 0 1 1.2 4.1A47.1 47.1 0 0 0 47.1 0z" fill="#826550"/></symbol><symbol id="beard-1" viewBox="0 0 51.5 49.5"><path d="M50.8 0h-.2c-2.3 7.7-2.9 17.1-9.4 20.6-1.2-3.4-4.1-4.9-7.4-6.4s-4.5-2.6-6.6-2.6a2.2 2.2 0 0 0-1.5.3 2.2 2.2 0 0 0-1.5-.3c-2.1.1-4.5 1.7-6.6 2.6s-6.2 3-7.4 6.4C3.8 17 3.1 7.7.8 0H.6A14.5 14.5 0 0 0 0 2.4c0 1.9.5 21.5 1.9 28.4S8 41.6 12.7 44.6s8.5 4.8 13 4.8 9.7-2.8 13-4.8 9.6-7.5 10.8-13.8 1.9-26.5 1.9-28.4a14.5 14.5 0 0 0-.6-2.4zM36.9 28c-.2 1.6-1.7 3.4-3.4 3.5s-4.5-4.4-7.9-4.4-4.9 4.5-7.9 4.4-3.1-1.9-3.4-3.5a7.6 7.6 0 0 1 1.7-5.6c1.1-1.1 2.8-.9 4.7-1.2a8.6 8.6 0 0 0 4.9-1.9 8.6 8.6 0 0 0 4.9 1.9c1.9.3 3.6.1 4.7 1.2a7.6 7.6 0 0 1 1.7 5.6z" fill="#826550"/></symbol><symbol id="beard-2" viewBox="0 0 57.7 68.6"><path d="M51.6 22.2c.1-1.7.5-3.5.7-5.4.7-5.4 1.6-11.7-.1-16.8H52c-1.3 3.7-1.3 8.3-2.2 12.4a19.7 19.7 0 0 1-3.2 7.6 4.4 4.4 0 0 1-1.9 1.7c-.7-3.9-4.3-4.9-7.7-6.4s-4-2-6.1-2.2a10.8 10.8 0 0 0-2 .2 10.6 10.6 0 0 0-2-.2c-2.1.1-4 1.3-6.1 2.2s-7 2.4-7.7 6.4a4.4 4.4 0 0 1-1.9-1.8A19.7 19.7 0 0 1 8 12.3c-.9-4-.8-8.6-2.2-12.4h-.3C3.8 5 4.7 11.3 5.4 16.7c.2 1.9.6 3.7.7 5.4.8 11.1-7 23.1-6 28.9.9 7.5 8.4 9.4 14.2 12.4s8.3 5 13.3 5.2h2.6c5-.2 9-2.9 13.3-5.2s13.2-4.7 14.1-12.3c1-5.8-6.8-17.8-6-28.9zM28.9 26a35.9 35.9 0 0 1-7.2-.5c.7-2.1 4-1.6 7.1-1.6h.2c3 0 6.4-.5 7.1 1.6a36 36 0 0 1-7.2.5z" fill="#826550"/></symbol><symbol id="beard-3" viewBox="0 0 62.4 78.5"><path d="M62.4 42c0-5.2-2.4-7.8-3.6-10a56 56 0 0 1-4.2-17.6C54.5 9.5 52.9 2 51.7 0c-.9 0-1.5 7.8-2.3 11.6-1.4 7-3.8 8.9-4.4 9-.8-2.8-4.1-7.4-13.7-7.7h-.2c-9.6.4-12.9 4.9-13.7 7.7-.7-.1-3-2-4.4-9C12.2 7.7 11.6 0 10.7 0 9.5 2 7.9 9.5 7.8 14.4A56.1 56.1 0 0 1 3.6 32C2.4 34.2 0 36.7 0 42s5.2 7.2 5.6 11.4c.1 1.2 0 2.3.1 3.4 2 17.5 17.9 21.7 25.4 21.7 7.6 0 23.4-4.2 25.4-21.7.2-1 0-2.1.1-3.4.6-4.2 5.8-7.6 5.8-11.4zM33.2 26.8a20.6 20.6 0 0 0-4.1 0c-1.7.3-5.8 1-5.8-1.1s6.7-2.3 7.8-2.3 7.8 1.2 7.8 2.3-3.9 1.4-5.7 1.1z" fill="#826550"/></symbol><symbol id="beard-4" viewBox="0 0 57 97.7"><path d="M51.1 15.3c-.4-5.5-.6-10.9-2.5-15.2-.8 0-1.5 7.3-2.3 10.9-1.5 7.1-3.7 8.3-4.4 8.3-.9-3.9-4.4-4.2-7.8-5.9a11.1 11.1 0 0 0-3.6-1.2 14.6 14.6 0 0 0-2 .1 14.4 14.4 0 0 0-2-.1 11.1 11.1 0 0 0-3.6 1.2c-3.4 1.6-6.9 2-7.8 5.9-.7 0-3-1.1-4.4-8.3C10 7.4 9.2.1 8.4.1 6.5 4.5 6.3 9.9 5.9 15.3 5 38.8 0 51.6 0 62.5c0 26.1 11.7 35.3 28.5 35.3S57 88.6 57 62.5c0-10.9-5-23.7-5.9-47.2zM34.4 25c-2.8 1.2-5.4-.7-5.9-.7h-.1c-.5 0-3.1 1.9-5.9.7-.8-3.6 2.4-4 5.9-3.9s6.8.3 6 3.9z" fill="#826550"/></symbol><symbol id="beard-5" viewBox="0 0 44.7 104.8"><path d="M43.4 0h-.1c-2.8 21.5-5.4 22.6-7 22.7s-3.6-1.8-4.9-2.5a15.9 15.9 0 0 0-9.1-2.6 15.9 15.9 0 0 0-9.1 2.5c-1.3.7-3.5 2.6-4.9 2.5s-4.1-1.2-7-22.7C-.8 12.1-.3 50.1 2.5 63.5 5.1 82 12.6 98.6 15.9 103.1c.7 1 3.5 1.6 6.4 1.6s5.7-.5 6.4-1.6C32 98.6 39.5 82 42.1 63.5 45 50.2 45.5 12.2 43.4 0zM22.3 28.1a100.2 100.2 0 0 0-10.1.5c1.1-1.8 9-3.2 10.1-3.4s9 1.7 10.1 3.4a100.2 100.2 0 0 0-10.1-.5z" fill="#826550"/></symbol><symbol id="beard-icon" viewBox="0 0 22.1 21.2"><title>beard-icon</title><path d="M21.8 0h-.1c-1 3.3-1.3 7.3-4 8.8-.5-1.4-1.8-2.1-3.2-2.7A9.5 9.5 0 0 0 11.7 5a.9.9 0 0 0-.6.1.9.9 0 0 0-.7-.1 9.5 9.5 0 0 0-2.8 1.1c-1.4.6-2.7 1.3-3.2 2.7C1.6 7.3 1.3 3.3.4 0H.3A6.3 6.3 0 0 0 0 1a110.5 110.5 0 0 0 .8 12.2c.5 2.7 2.6 4.6 4.6 5.9S9 21.2 11 21.2s4.2-1.2 5.6-2.1 4.1-3.2 4.6-5.9A110.3 110.3 0 0 0 22.1 1a6.1 6.1 0 0 0-.3-1zm-6 12a1.8 1.8 0 0 1-1.4 1.5c-1.3.1-1.9-1.9-3.4-1.9s-2.1 1.9-3.4 1.9A1.8 1.8 0 0 1 6.2 12a3.2 3.2 0 0 1 .7-2.4 3.5 3.5 0 0 1 2-.5 3.7 3.7 0 0 0 2.1-.8 3.7 3.7 0 0 0 2.1.8 3.5 3.5 0 0 1 2 .5 3.2 3.2 0 0 1 .7 2.4z" fill="#826550"/></symbol><symbol id="clock illustration" viewBox="0 0 141.7 139.5"><title>clock illustration</title><path d="M71.8 21.5V1a1 1 0 0 0-2 0v20.5h2zm-26 6.9l1.7-1L37.3 9.7a1 1 0 0 0-1.7 1zm-35.3 6.3a1 1 0 0 0 .4 1.4l17.7 10.3 1-1.7-17.7-10.3a1 1 0 0 0-1.4.3zm95.9-26.2a1 1 0 0 0-1.4.4L94.2 27.5l1.7 1 10.8-18.6a1 1 0 0 0-.3-1.4zm25.4 27.2a1 1 0 1 0-1-1.7l-18.6 10.8 1 1.7zM22.5 69.8v-1H1a1 1 0 1 0 0 2h21.5v-1zm118.2-1h-21.6v2h21.5a1.001 1.001 0 1 0 .1-2zm-9.9 34.6l-17.7-10.3-1 1.7 17.7 10.3h.5a1 1 0 0 0 .5-1.7zm-120.9.5a1 1 0 0 0 .5 1.9h.5L29.5 95l-1-1.7zm86 7.2l-1.7 1 10.2 17.7a1 1 0 0 0 .9.5h.5a1 1 0 0 0 .4-1.4zm-61 18.6a1 1 0 0 0 .4 1.4h.5a1 1 0 0 0 .9-.5L47.5 112l-1.7-1zm34.9-11.6v20.5a1 1 0 0 0 2 0v-20.5h-2zm34.9-66.2a1.5 1.5 0 1 0-1.5-2.6L74.8 65.7a5.7 5.7 0 0 0-7.9 0L46.6 53.9a1.5 1.5 0 0 0-1.5 2.6l20.3 11.8a5.7 5.7 0 1 0 11 0zM75.3 66.4zm.4.6zm-9.8 0zm.4-.6zm4.5 6.2a2.7 2.7 0 1 1 2.7-2.7 2.7 2.7 0 0 1-2.7 2.5z" fill="#fff"/></symbol><symbol id="corner-dark" viewBox="0 0 100 100" preserveAspectRatio="none"><path fill="#242424" d="M0 100L50 0l50 100z"/></symbol><symbol id="corner-double" viewBox="0 0 320.00001 33.999999" preserveAspectRatio="none"><path d="M0 0v34h160zm320 0v34H160z" fill="#f8f5f2" fill-rule="evenodd"/></symbol><symbol id="corner-light" viewBox="0 0 100 100" preserveAspectRatio="none"><path fill="#f8f5f2" d="M0 100L50 0l50 100z"/></symbol><symbol id="corner-photo" viewBox="0 0 100 100" preserveAspectRatio="none"><path fill="#353535" d="M0 100L50 0l50 100z"/></symbol><symbol id="locked" viewBox="0 0 15 17"><path data-name="Locked 2" class="cls-1" d="M13 5.451A5.5 5.5 0 0 0 7.389 0a5.366 5.366 0 0 0-5.453 5.453h-.63A1 1 0 0 0 .048 6.532v9.05A1.048 1.048 0 0 0 1.187 17h12.568A1.382 1.382 0 0 0 15 15.58V6.97a1.343 1.343 0 0 0-1.247-1.532zm-1.187-.013a4.284 4.284 0 0 0-8.564 0h8.564zM7.168 7.473A2.01 2.01 0 0 1 9.13 9.527a2.054 2.054 0 0 1-1.263 1.919c-.1.041.661 3.541.661 3.541l-2.64.019a20.682 20.682 0 0 0 .647-3.535 2.05 2.05 0 0 1-1.328-1.944 2.009 2.009 0 0 1 1.965-2.054z"/></symbol><symbol id="logotype-desktop" viewBox="0 0 369.5 153"><title>logotype-desktop</title><path d="M119.9 11.4C127 9 127.6 0 120.5 0c-1.9 0-4.3 1.4-5.9 4.2L105 20.7a13.8 13.8 0 0 1-1.4 2c-2.5-3.4-1.7-8.5 1.7-10.7l-1.3-1.7c-7.5 4.8-5.3 18.5 7.2 18.5 10.6-.1 15.5-12.8 8.7-17.4zM111.1 26a10.2 10.2 0 0 1-5.1-1.2 18.4 18.4 0 0 0 1.8-2.5l6-10.4h1c8.2 1.8 4.9 14.1-3.7 14.1zm3.8-16.2l2.9-4.9c2.6-4.5 5.9-1.8 4.1 1.5s-3.4 3.3-7 3.4z" fill="#fff"/><path d="M259.2 19l-.2.3a16.7 16.7 0 0 1-6.5 5c.6-.9 1-1.9 1.5-2.7l3.9-6.7c3.3-5.6-2.1-7.5-5.7-4.3l.7-1.2h-3.6l-5.5 9.6-.2.3a7.7 7.7 0 0 1-5.4 2.6l3.4-5.8c2.2-3.7.2-7.3-3.2-7.3s-4.9 1.1-6.9 4.7l-1.7 3-1.6 2.5-.2.2c-2.6 3-5.1 5.3-6.6 5.3s-1.2-.5-.4-1.9l5.1-9c1.5-2.7.1-4.7-1.9-4.7s-3.2.9-5 2.7l5.7-9.9h-3.6L211.4 19l-.2.2a22.1 22.1 0 0 1-4.3 3.9c1.1-3.4.9-8.6 3.1-13.1l-2.7-1.4c-1.5 2-4.7 6.7-7.9 10.4l-.2.3c-2.6 3-5.1 5.3-6.6 5.3s-1.2-.5-.4-1.9l3.6-6.2c1.2-2.2.6-3.4-.5-4.8l-2-2.4a1.4 1.4 0 0 1 .2-2.1l-1.8-2c-2 1.8-2.2 3.8-.9 5.5l.2.3c-1.6 2.2-3.7 5.2-6 8l-.2.3c-2.6 3-5.9 5.3-8.3 5.3s-3.5-1.4-1.8-4.2l.3-.6c2.3 1 6.6.5 9.3-4.1l.5-.9c1.9-3.3.1-5.7-2.8-5.7a7.5 7.5 0 0 0-6.7 4.1l-3.6 5.8-.2.2a7.6 7.6 0 0 1-5.4 2.6l3.4-5.8a8.7 8.7 0 0 0 1.3-4.1 3 3 0 0 0-3.2-3.2 4.1 4.1 0 0 0-2.3.8l4.5-7.8h-3.6l-10 17.3-.2.2c-2.6 3-5.1 5.3-6.6 5.3s-1.2-.5-.4-1.9l3.6-6.2c1.2-2.2.6-3.4-.5-4.8l-2-2.4a1.4 1.4 0 0 1 .2-2.1l-1.8-2c-2 1.8-2.2 3.8-.9 5.5l.3.4c-1.6 2.2-3.7 5.2-6 8l-.2.3c-2.6 3-5.1 5.3-6.6 5.3s-1.2-.5-.4-1.9l5.7-10.1h-2a3.7 3.7 0 0 0-4-3.6c-1.9 0-4.6 1.5-6.1 4.1l-5 8.6c-1.5 2.6-.4 5.1 2.4 5.1s3.2-.9 4.9-2.3c.2 1.4 1.3 2.3 3.1 2.3s6.3-3.1 9.3-6.6c1.7-2 3-3.8 5.9-7.6l.5.6a1.7 1.7 0 0 1 .2 2l-3.8 6.5c-1.5 2.6-.4 5.1 2.4 5.1s4.3-1.5 6.5-3.7c0 2.4 1.8 3.8 4.1 3.8a7.9 7.9 0 0 0 6.1-3.3h.8a10.4 10.4 0 0 0 4.7-1.4c-.2 2.6 1.7 4.5 4.8 4.5s8-3.1 11-6.6 3-3.8 5.9-7.6l.5.6a1.7 1.7 0 0 1 .2 2l-3.8 6.5c-1.5 2.6-.4 5.1 2.4 5.1s6.3-3.1 9.3-6.6c2-2.3 3.8-4.8 5.1-6.5-1.4 3.7-.6 10.3-4 10.3a2 2 0 0 1-1.7-1.3l-2.2 1.2a3.9 3.9 0 0 0 3.9 2.9h1.1a12.5 12.5 0 0 0 5.5-2.4l-1.2 2.1h3.6l5.4-9.4c5.5-6.9 7.9-6 6.4-3.4l-4.6 8c-1.5 2.6-.4 5.1 2.4 5.1s4.4-1.6 6.6-3.7c0 4.5 6.3 5.4 10.1.6h.8a9.8 9.8 0 0 0 3.8-.9l-6.5 11.2h3.6l10.6-18.5c4-5.4 6.5-3.4 5.5-1.8l-5.4 9.3a1.4 1.4 0 0 1-2.6 0l-2 1a3.9 3.9 0 0 0 3.9 2.9h.2c5.2-.1 8.6-3.2 11.5-6.6a2.2 2.2 0 0 0-1.3-1.2zm-81-5c2.1-3.5 5.7-2.9 3.6.8l-.5.9c-1.7 2.9-4 2.8-5.3 2.4zm-45.6 5.6c-2.2 3.4-4.3 5-5.7 5s-1.2-.5-.4-1.9l5-8.7c1.9-3.3 5.7-2.5 4 .8zm26.8 4.9a1.3 1.3 0 0 1-1.4-1.4 4 4 0 0 1 .6-1.8l1.3-2.2a5.2 5.2 0 0 0 2.3 3.7 3.3 3.3 0 0 1-2.8 1.6zm3.7-3.5a3.8 3.8 0 0 1-1.5-3.2c0-2.5 2.5-6.7 4.5-6.7a1.4 1.4 0 0 1 1.3 1.5 4.3 4.3 0 0 1-.7 2.1zm73.1-1.8h-.2a2.1 2.1 0 0 0-2.1 2.1 2.3 2.3 0 0 0 .3 1.2c-1.7 2.9-5.7 2.3-3.6-1.4l2.7-4.7 1.7-2.9c2.5-4.2 5.9-2.6 3.8 1.1zM.034 73.23l5.727-5.728 5.714 5.714-5.728 5.727zm351.901-.002l5.728-5.727 5.713 5.713-5.727 5.728z" fill="#fff"/><path fill="#636466" d="M46.8 73.5h2.1v-8.3h3.3v-2.1h-5.4v10.4zM61.7 75V62.3a4.6 4.6 0 0 0-2.6-4.1 4.5 4.5 0 0 1 .5 2v12.7a4.5 4.5 0 0 1-1.7 3.5 5.2 5.2 0 0 1 1.7 3.7v14.1a4.6 4.6 0 0 1-4.6 4.6H41.5v2.1h15.6a4.6 4.6 0 0 0 4.6-4.6V82.2a5.2 5.2 0 0 0-1.7-3.7 4.5 4.5 0 0 0 1.7-3.5z"/><path fill="#636466" d="M46.8 91.3h2.1V83h3.3v-2.1h-5.4v10.4zm33 0h2.1V65.2h3.3v-2.1h-5.4v28.2z"/><path d="M92.1 58.3a4.5 4.5 0 0 1 .5 2v34a4.6 4.6 0 0 1-4.6 4.6H77a4.5 4.5 0 0 1-2-.5 4.6 4.6 0 0 0 4.1 2.6h11a4.6 4.6 0 0 0 4.6-4.6v-34a4.6 4.6 0 0 0-2.6-4.1zm20.7 15.2h2.1v-8.3h3.3v-2.1h-5.4v10.4zm12.3 9a4.5 4.5 0 0 0 2.6-4.1V62.3a4.6 4.6 0 0 0-2.6-4.1 4.6 4.6 0 0 1 .5 2v16.2a4.5 4.5 0 0 1-2.6 4.1l3.1 18.4h-5.7l.4 2.1h7.4zm-9.5-1.6h-2.8v17.9h-5.3v2.1h7.4V83h1.1l-.4-2.1zm29.2 10.4h2.1V65.2h3.3v-2.1h-5.4v28.2z" fill="#636466"/><path d="M157.2 58.3a4.4 4.4 0 0 1 .5 2v34a4.6 4.6 0 0 1-4.6 4.6H142a4.5 4.5 0 0 1-2-.5 4.6 4.6 0 0 0 4.1 2.6h11.1a4.6 4.6 0 0 0 4.6-4.6v-34a4.6 4.6 0 0 0-2.6-4.1zm20.7 33h2V65.2h3.3v-2.1h-5.3v28.2z" fill="#636466"/><path d="M190.2 58.3a4.5 4.5 0 0 1 .5 2v34a4.6 4.6 0 0 1-4.6 4.6h-13.5v2.1h15.6a4.6 4.6 0 0 0 4.6-4.6v-34a4.6 4.6 0 0 0-2.6-4.1zm21-.5v41h-5.3v2.1h7.4V57.8h-2.1zm32.9 0v41h-5.9l.6 2.1h7.4V57.8h-2.1zm-12.8 22.1v18.9H226v2.1h7.4V87.2l-2.1-7.3zm32.3 3.1h6.1v-2.1h-8.2a4.5 4.5 0 0 1-2-.5 4.5 4.5 0 0 0 4.1 2.6zm2.8 2.7l-2.1.5v5.1h2.1v-5.6zm10.3-27.4a4.5 4.5 0 0 1 .5 2V69l-5.4 1.2v2.6l7.5-1.7v-8.8a4.6 4.6 0 0 0-2.6-4z" fill="#636466"/><path d="M276.7 76.1a4.5 4.5 0 0 1 .5 2v16.1a4.6 4.6 0 0 1-4.6 4.6h-11.1a4.5 4.5 0 0 1-2-.5 4.6 4.6 0 0 0 4.1 2.6h11.1a4.6 4.6 0 0 0 4.6-4.6V80.1a4.6 4.6 0 0 0-2.6-4zm-12.4-13v10.4h2.1v-8.3h3.3v-2.1h-5.4zM298 80.9h-.7v17.9H292v2.1h7.4V85.4l-1.4-4.5zm15.2-23.1h-2.8l-6.2 19.4 6.9 21.6h-6l.5 1.8.1.3h7.5l-6.9-21.6 6.9-21.5zm17.3 0v41h-5.3v2.1h7.4V57.8h-2.1z" fill="#636466"/><path d="M167.9 123.8h1.4c5.4.3 9.7 1.7 12.4 4.7 2.7-3 7-4.5 12.5-4.7h1.3c12.1.8 17.6 9.5 27.3 13.2a11.1 11.1 0 0 0 4.8 1c2.5-.3 4.1-2.8 3.7-5.6s-3.3-5.6-6.6-4.2a4.3 4.3 0 0 0-1.2.8 1.1 1.1 0 0 1-1.2.6c-.6-.5 0-1.2.3-1.7a6 6 0 0 1 6.1-3c5.6.4 10.7 5.3 9.8 12.8-1.8 11.3-12 14.3-24 15.3h-3.9a48.3 48.3 0 0 1-28.8-11 49.1 49.1 0 0 1-28.9 11H149c-12.2-1.1-22.4-4-24.2-15.5-.7-8.2 4.2-12.2 9.8-12.6a6.1 6.1 0 0 1 6.1 3c.3.5.8 1.2.3 1.7a1.3 1.3 0 0 1-1.2-.6 4 4 0 0 0-2.8-1.2c-3.9-.1-6.1 4.2-4.5 7.6a4.3 4.3 0 0 0 3.4 2.5 11.7 11.7 0 0 0 4.8-1 23.8 23.8 0 0 0 3.9-1.9c7.3-4.2 13-10.2 23.3-11.2z" fill="#fff"/><path fill="#636466" d="M361.605 82.967l5.727-5.728 2.086 2.086-5.727 5.728zm-351.931.072L15.4 77.31l2.086 2.086-5.727 5.728z"/><path d="M55.6 69a4.5 4.5 0 0 1-1.6 3.5 5.2 5.2 0 0 1 1.7 3.7v14.1a4.6 4.6 0 0 1-4.6 4.6H35.5V51.7h15.6a4.6 4.6 0 0 1 4.6 4.6V69zm-7.5-9.9h-5.3v10.4h5.4V59.1zm0 17.8h-5.3v10.5h5.4V76.9zm36-25.2a4.6 4.6 0 0 1 4.6 4.6v34a4.6 4.6 0 0 1-4.6 4.6H73a4.6 4.6 0 0 1-4.6-4.6v-34a4.5 4.5 0 0 1 4.6-4.6h11.1zm-2.9 7.4h-5.3v28.3h5.4V59.1zm33.5 35.7l-3-17.9h-2.8v17.9h-7.4V51.7h15.6a4.5 4.5 0 0 1 4.5 4.6v16.1a4.5 4.5 0 0 1-2.6 4.1l3.1 18.4h-7.4zm-.5-35.7h-5.4v10.4h5.4V59.1zm34.9-7.4a4.6 4.6 0 0 1 4.6 4.6v34a4.6 4.6 0 0 1-4.6 4.6h-11a4.6 4.6 0 0 1-4.6-4.6v-34a4.5 4.5 0 0 1 4.6-4.6h11.1zm-2.9 7.4h-5.4v28.3h5.4V59.1zm36-7.4a4.6 4.6 0 0 1 4.6 4.6v34a4.6 4.6 0 0 1-4.6 4.6h-15.7V51.7h15.6zm-2.9 7.4h-5.4v28.3h5.4V59.1zm20.6-7.4h7.4v43.1h-7.4V51.7zm40.3 0v43.1h-7.4L227.4 76v18.8H220V51.7h7.3l5.4 17.7V51.7h7.5zm28.4 17.8a4.6 4.6 0 0 1 4.6 4.6v16.2a4.6 4.6 0 0 1-4.6 4.6h-11.1a4.6 4.6 0 0 1-4.6-4.6v-8.9l7.4-1.7v7.7h5.4V76.9h-8.2a4.5 4.5 0 0 1-4.6-4.6v-16a4.5 4.5 0 0 1 4.6-4.6h11.1a4.6 4.6 0 0 1 4.6 4.6V65l-7.5 1.7v-7.6h-5.4v10.4h8.3zm31.6 3.7l6.9 21.6h-7.5v-.2l-5.5-17.7h-.7v17.9H286V51.7h7.4v17.8h.6l5.7-17.8h7.5zm19-21.5h7.4v43.1h-7.4V51.7z" fill="#fff"/></symbol><symbol id="logotype-mobile" viewBox="0 0 225.8 30"><title>logotype-mobile</title><path fill="#fff" d="M-.027 13.159l3.465-3.465 3.493 3.493-3.465 3.465zm215.099.001l3.465-3.465 3.493 3.494-3.465 3.464z"/><path fill="#636466" d="M28.6 13.3h1.3V8.2h2V6.9h-3.3v6.4zm9.1.9V6.5A2.8 2.8 0 0 0 36.1 4a2.7 2.7 0 0 1 .3 1.2V13a2.7 2.7 0 0 1-1 2.1 3.2 3.2 0 0 1 1 2.3V26a2.8 2.8 0 0 1-2.8 2.8h-8.2V30H35a2.8 2.8 0 0 0 2.8-2.8v-8.6a3.2 3.2 0 0 0-1-2.3 2.7 2.7 0 0 0 .9-2.1z"/><path fill="#636466" d="M28.6 24.2h1.3v-5.1h2v-1.3h-3.3v6.4zm20.2 0h1.3v-16h2V6.9h-3.3v17.3z"/><path d="M56.3 4a2.7 2.7 0 0 1 .3 1.2V26a2.8 2.8 0 0 1-2.8 2.8H47a2.7 2.7 0 0 1-1.2-.3 2.8 2.8 0 0 0 2.5 1.5h6.8a2.8 2.8 0 0 0 2.8-2.8V6.5A2.8 2.8 0 0 0 56.3 4zM69 13.3h1.2V8.2h2V6.9H69v6.4zm7.4 5.5a2.7 2.7 0 0 0 1.6-2.5V6.5A2.8 2.8 0 0 0 76.5 4a2.8 2.8 0 0 1 .3 1.2v9.9a2.7 2.7 0 0 1-1.6 2.5L77 28.8h-3.4l.2 1.2h4.5zm-5.7-1H69v11h-3.3V30h4.5V19.1h.7l-.2-1.3zm17.8 6.4h1.3v-16h2V6.9h-3.3v17.3z" fill="#636466"/><path d="M96.1 4a2.7 2.7 0 0 1 .3 1.2V26a2.8 2.8 0 0 1-2.8 2.8h-6.8a2.7 2.7 0 0 1-1.2-.3 2.8 2.8 0 0 0 2.5 1.5h6.8a2.8 2.8 0 0 0 2.8-2.8V6.5A2.8 2.8 0 0 0 96.1 4zm12.6 20.2h1.3v-16h2V6.9h-3.3v17.3z" fill="#636466"/><path d="M116.2 4a2.7 2.7 0 0 1 .3 1.2V26a2.8 2.8 0 0 1-2.8 2.8h-8.3V30h9.6a2.8 2.8 0 0 0 2.8-2.8V6.5a2.8 2.8 0 0 0-1.6-2.5zm12.9-.3v25.1h-3.2V30h4.5V3.7h-1.3zm20.1 0v25.1h-3.6l.4 1.2h4.5V3.7h-1.3zm-7.8 13.5v11.6h-3.3V30h4.5v-8.3l-1.2-4.5zm19.7 1.9h3.7v-1.3h-5a2.7 2.7 0 0 1-1.2-.3 2.8 2.8 0 0 0 2.5 1.6zm1.7 1.7l-1.2.3v3.1h1.2v-3.4zM169.1 4a2.7 2.7 0 0 1 .3 1.2v5.3l-3.3.8v1.6l4.6-1.1V6.5a2.8 2.8 0 0 0-1.6-2.5z" fill="#636466"/><path d="M169.1 14.9a2.7 2.7 0 0 1 .3 1.2V26a2.8 2.8 0 0 1-2.8 2.8h-6.8a2.7 2.7 0 0 1-1.2-.3 2.8 2.8 0 0 0 2.5 1.6h6.8a2.8 2.8 0 0 0 2.8-2.8v-9.9a2.8 2.8 0 0 0-1.6-2.5zm-7.5-8v6.4h1.2V8.2h2V6.9h-3.2zm20.5 10.9h-.4v11h-3.2V30h4.5v-9.4l-.9-2.8zm9.3-14.1h-1.7l-3.8 11.9 4.2 13.2h-3.6l.3 1.1v.1h4.6l-4.2-13.2 4.2-13.1zm10.6 0v25.1h-3.2V30h4.5V3.7H202zm19.162 15.42l3.465-3.464 1.273 1.273-3.465 3.465zM5.893 19.09l3.465-3.465 1.272 1.273-3.464 3.465z" fill="#636466"/><path d="M34 10.5a2.7 2.7 0 0 1-1 2.1 3.2 3.2 0 0 1 1 2.3v8.6a2.8 2.8 0 0 1-2.8 2.8h-9.5V0h9.6A2.8 2.8 0 0 1 34 2.8v7.8zm-4.6-6h-3.2v6.4h3.3V4.5zm0 10.9h-3.2v6.4h3.3v-6.4zM51.4 0a2.8 2.8 0 0 1 2.8 2.8v20.8a2.8 2.8 0 0 1-2.8 2.8h-6.8a2.8 2.8 0 0 1-2.8-2.8V2.8A2.8 2.8 0 0 1 44.6 0h6.8zm-1.8 4.5h-3.2v17.3h3.3V4.5zm20.5 21.8l-1.8-11h-1.8v11H62V0h9.6a2.8 2.8 0 0 1 2.7 2.8v9.9a2.7 2.7 0 0 1-1.6 2.5l1.9 11.2h-4.5zm-.3-21.8h-3.3v6.4h3.3V4.5zM91.2 0A2.8 2.8 0 0 1 94 2.8v20.8a2.8 2.8 0 0 1-2.8 2.8h-6.8a2.8 2.8 0 0 1-2.8-2.8V2.8A2.8 2.8 0 0 1 84.4 0h6.8zm-1.8 4.5h-3.3v17.3h3.3V4.5zM111.3 0a2.8 2.8 0 0 1 2.8 2.8v20.8a2.8 2.8 0 0 1-2.8 2.8h-9.6V0h9.6zm-1.8 4.5h-3.3v17.3h3.3V4.5zM122.2 0h4.5v26.3h-4.5V0zm24.6 0v26.3h-4.5L139 14.8v11.5h-4.5V0h4.5l3.3 10.8V0h4.6zm17.4 10.9a2.8 2.8 0 0 1 2.8 2.8v9.9a2.8 2.8 0 0 1-2.8 2.8h-6.8a2.8 2.8 0 0 1-2.8-2.8v-5.5l4.5-1.1v4.7h3.3v-6.3h-5a2.8 2.8 0 0 1-2.8-2.8V2.8a2.8 2.8 0 0 1 2.8-2.8h6.8a2.8 2.8 0 0 1 2.8 2.8v5.3l-4.6 1.1V4.5h-3.3v6.4h5zm19.3 2.2l4.2 13.2h-4.6v-.1l-3.4-10.8h-.4v11h-4.5V0h4.5v10.9h.3L183.1 0h4.6zM195.1 0h4.5v26.3h-4.5V0z" fill="#fff"/></symbol><symbol id="logotype-tablet" viewBox="0 0 369.5 100.9"><title>logotype-tablet</title><path d="M119.9 11.4C127 9 127.6 0 120.5 0c-1.9 0-4.3 1.4-5.9 4.2L105 20.7a13.8 13.8 0 0 1-1.4 2c-2.5-3.4-1.7-8.5 1.7-10.7l-1.3-1.7c-7.5 4.8-5.3 18.5 7.2 18.5 10.6-.1 15.5-12.8 8.7-17.4zM111.1 26a10.2 10.2 0 0 1-5.1-1.2 18.4 18.4 0 0 0 1.8-2.5l6-10.4h1c8.2 1.8 4.9 14.1-3.7 14.1zm3.8-16.2l2.9-4.9c2.6-4.5 5.9-1.8 4.1 1.5s-3.4 3.3-7 3.4z" fill="#fff"/><path d="M259.2 19l-.2.3a16.7 16.7 0 0 1-6.5 5c.6-.9 1-1.9 1.5-2.7l3.9-6.7c3.3-5.6-2.1-7.5-5.7-4.3l.7-1.2h-3.6l-5.5 9.6-.2.3a7.7 7.7 0 0 1-5.4 2.6l3.4-5.8c2.2-3.7.2-7.3-3.2-7.3s-4.9 1.1-6.9 4.7l-1.7 3-1.6 2.5-.2.2c-2.6 3-5.1 5.3-6.6 5.3s-1.2-.5-.4-1.9l5.1-9c1.5-2.7.1-4.7-1.9-4.7s-3.2.9-5 2.7l5.7-9.9h-3.6L211.4 19l-.2.2a22.1 22.1 0 0 1-4.3 3.9c1.1-3.4.9-8.6 3.1-13.1l-2.7-1.4c-1.5 2-4.7 6.7-7.9 10.4l-.2.3c-2.6 3-5.1 5.3-6.6 5.3s-1.2-.5-.4-1.9l3.6-6.2c1.2-2.2.6-3.4-.5-4.8l-2-2.4a1.4 1.4 0 0 1 .2-2.1l-1.8-2c-2 1.8-2.2 3.8-.9 5.5l.2.3c-1.6 2.2-3.7 5.2-6 8l-.2.3c-2.6 3-5.9 5.3-8.3 5.3s-3.5-1.4-1.8-4.2l.3-.6c2.3 1 6.6.5 9.3-4.1l.5-.9c1.9-3.3.1-5.7-2.8-5.7a7.5 7.5 0 0 0-6.7 4.1l-3.6 5.8-.2.2a7.6 7.6 0 0 1-5.4 2.6l3.4-5.8a8.7 8.7 0 0 0 1.3-4.1 3 3 0 0 0-3.2-3.2 4.1 4.1 0 0 0-2.3.8l4.5-7.8h-3.6l-10 17.3-.2.2c-2.6 3-5.1 5.3-6.6 5.3s-1.2-.5-.4-1.9l3.6-6.2c1.2-2.2.6-3.4-.5-4.8l-2-2.4a1.4 1.4 0 0 1 .2-2.1l-1.8-2c-2 1.8-2.2 3.8-.9 5.5l.3.4c-1.6 2.2-3.7 5.2-6 8l-.2.3c-2.6 3-5.1 5.3-6.6 5.3s-1.2-.5-.4-1.9l5.7-10.1h-2a3.7 3.7 0 0 0-4-3.6c-1.9 0-4.6 1.5-6.1 4.1l-5 8.6c-1.5 2.6-.4 5.1 2.4 5.1s3.2-.9 4.9-2.3c.2 1.4 1.3 2.3 3.1 2.3s6.3-3.1 9.3-6.6c1.7-2 3-3.8 5.9-7.6l.5.6a1.7 1.7 0 0 1 .2 2l-3.8 6.5c-1.5 2.6-.4 5.1 2.4 5.1s4.3-1.5 6.5-3.7c0 2.4 1.8 3.8 4.1 3.8a7.9 7.9 0 0 0 6.1-3.3h.8a10.4 10.4 0 0 0 4.7-1.4c-.2 2.6 1.7 4.5 4.8 4.5s8-3.1 11-6.6 3-3.8 5.9-7.6l.5.6a1.7 1.7 0 0 1 .2 2l-3.8 6.5c-1.5 2.6-.4 5.1 2.4 5.1s6.3-3.1 9.3-6.6c2-2.3 3.8-4.8 5.1-6.5-1.4 3.7-.6 10.3-4 10.3a2 2 0 0 1-1.7-1.3l-2.2 1.2a3.9 3.9 0 0 0 3.9 2.9h1.1a12.5 12.5 0 0 0 5.5-2.4l-1.2 2.1h3.6l5.4-9.4c5.5-6.9 7.9-6 6.4-3.4l-4.6 8c-1.5 2.6-.4 5.1 2.4 5.1s4.4-1.6 6.6-3.7c0 4.5 6.3 5.4 10.1.6h.8a9.8 9.8 0 0 0 3.8-.9l-6.5 11.2h3.6l10.6-18.5c4-5.4 6.5-3.4 5.5-1.8l-5.4 9.3a1.4 1.4 0 0 1-2.6 0l-2 1a3.9 3.9 0 0 0 3.9 2.9h.2c5.2-.1 8.6-3.2 11.5-6.6a2.2 2.2 0 0 0-1.3-1.2zm-81-5c2.1-3.5 5.7-2.9 3.6.8l-.5.9c-1.7 2.9-4 2.8-5.3 2.4zm-45.6 5.6c-2.2 3.4-4.3 5-5.7 5s-1.2-.5-.4-1.9l5-8.7c1.9-3.3 5.7-2.5 4 .8zm26.8 4.9a1.3 1.3 0 0 1-1.4-1.4 4 4 0 0 1 .6-1.8l1.3-2.2a5.2 5.2 0 0 0 2.3 3.7 3.3 3.3 0 0 1-2.8 1.6zm3.7-3.5a3.8 3.8 0 0 1-1.5-3.2c0-2.5 2.5-6.7 4.5-6.7a1.4 1.4 0 0 1 1.3 1.5 4.3 4.3 0 0 1-.7 2.1zm73.1-1.8h-.2a2.1 2.1 0 0 0-2.1 2.1 2.3 2.3 0 0 0 .3 1.2c-1.7 2.9-5.7 2.3-3.6-1.4l2.7-4.7 1.7-2.9c2.5-4.2 5.9-2.6 3.8 1.1zM.034 73.23l5.727-5.728 5.714 5.714-5.728 5.727zm351.901-.102l5.728-5.727 5.713 5.713-5.727 5.728z" fill="#fff"/><path fill="#636466" d="M46.8 73.5h2.1v-8.3h3.3v-2.1h-5.4v10.4zM61.7 75V62.3a4.6 4.6 0 0 0-2.6-4.1 4.5 4.5 0 0 1 .5 2v12.7a4.5 4.5 0 0 1-1.7 3.5 5.2 5.2 0 0 1 1.7 3.7v14.1a4.6 4.6 0 0 1-4.6 4.6H41.5v2.1h15.6a4.6 4.6 0 0 0 4.6-4.6V82.2a5.2 5.2 0 0 0-1.7-3.7 4.5 4.5 0 0 0 1.7-3.5z"/><path fill="#636466" d="M46.8 91.3h2.1V83h3.3v-2.1h-5.4v10.4zm33 0h2.1V65.2h3.3v-2.1h-5.4v28.2z"/><path d="M92.1 58.3a4.5 4.5 0 0 1 .5 2v34a4.6 4.6 0 0 1-4.6 4.6H77a4.5 4.5 0 0 1-2-.5 4.6 4.6 0 0 0 4.1 2.6h11a4.6 4.6 0 0 0 4.6-4.6v-34a4.6 4.6 0 0 0-2.6-4.1zm20.7 15.2h2.1v-8.3h3.3v-2.1h-5.4v10.4zm12.3 9a4.5 4.5 0 0 0 2.6-4.1V62.3a4.6 4.6 0 0 0-2.6-4.1 4.5 4.5 0 0 1 .5 2v16.2a4.5 4.5 0 0 1-2.6 4.1l3.1 18.4h-5.7l.4 2.1h7.4zm-9.5-1.6h-2.8v17.9h-5.3v2.1h7.4V83h1.1l-.4-2.1zm29.2 10.4h2.1V65.2h3.3v-2.1h-5.4v28.2z" fill="#636466"/><path d="M157.2 58.3a4.4 4.4 0 0 1 .5 2v34a4.6 4.6 0 0 1-4.6 4.6H142a4.5 4.5 0 0 1-2-.5 4.6 4.6 0 0 0 4.1 2.6h11.1a4.6 4.6 0 0 0 4.6-4.6v-34a4.6 4.6 0 0 0-2.6-4.1zm20.7 33h2V65.2h3.3v-2.1h-5.3v28.2z" fill="#636466"/><path d="M190.2 58.3a4.5 4.5 0 0 1 .5 2v34a4.6 4.6 0 0 1-4.6 4.6h-13.5v2.1h15.6a4.6 4.6 0 0 0 4.6-4.6v-34a4.6 4.6 0 0 0-2.6-4.1zm21-.5v41h-5.3v2.1h7.4V57.8h-2.1zm32.9 0v41h-5.9l.6 2.1h7.4V57.8h-2.1zm-12.8 22.1v18.9H226v2.1h7.4V87.2l-2.1-7.3zm32.3 3.1h6.1v-2.1h-8.2a4.5 4.5 0 0 1-2-.5 4.5 4.5 0 0 0 4.1 2.6zm2.8 2.7l-2.1.5v5.1h2.1v-5.6zm10.3-27.4a4.5 4.5 0 0 1 .5 2V69l-5.4 1.2v2.6l7.5-1.7v-8.8a4.6 4.6 0 0 0-2.6-4z" fill="#636466"/><path d="M276.7 76.1a4.5 4.5 0 0 1 .5 2v16.1a4.6 4.6 0 0 1-4.6 4.6h-11.1a4.5 4.5 0 0 1-2-.5 4.6 4.6 0 0 0 4.1 2.6h11.1a4.6 4.6 0 0 0 4.6-4.6V80.1a4.6 4.6 0 0 0-2.6-4zm-12.4-13v10.4h2.1v-8.3h3.3v-2.1h-5.4zM298 80.9h-.7v17.9H292v2.1h7.4V85.4l-1.4-4.5zm15.2-23.1h-2.8l-6.2 19.4 6.9 21.6h-6l.5 1.8.1.3h7.5l-6.9-21.6 6.9-21.5zm17.3 0v41h-5.3v2.1h7.4V57.8h-2.1zm31.105 25.167l5.727-5.728 2.086 2.086-5.727 5.728zm-351.931.072L15.4 77.31l2.086 2.086-5.727 5.728z" fill="#636466"/><path d="M55.6 69a4.5 4.5 0 0 1-1.6 3.5 5.2 5.2 0 0 1 1.7 3.7v14.1a4.6 4.6 0 0 1-4.6 4.6H35.5V51.7h15.6a4.6 4.6 0 0 1 4.6 4.6V69zm-7.5-9.9h-5.3v10.4h5.4V59.1zm0 17.8h-5.3v10.5h5.4V76.9zm36-25.2a4.6 4.6 0 0 1 4.6 4.6v34a4.6 4.6 0 0 1-4.6 4.6H73a4.6 4.6 0 0 1-4.6-4.6v-34a4.5 4.5 0 0 1 4.6-4.6h11.1zm-2.9 7.4h-5.3v28.3h5.4V59.1zm33.5 35.7l-3-17.9h-2.8v17.9h-7.4V51.7h15.6a4.5 4.5 0 0 1 4.5 4.6v16.1a4.5 4.5 0 0 1-2.6 4.1l3.1 18.4h-7.4zm-.5-35.7h-5.4v10.4h5.4V59.1zm34.9-7.4a4.6 4.6 0 0 1 4.6 4.6v34a4.6 4.6 0 0 1-4.6 4.6h-11a4.6 4.6 0 0 1-4.6-4.6v-34a4.5 4.5 0 0 1 4.6-4.6h11.1zm-2.9 7.4h-5.4v28.3h5.4V59.1zm36-7.4a4.6 4.6 0 0 1 4.6 4.6v34a4.6 4.6 0 0 1-4.6 4.6h-15.7V51.7h15.6zm-2.9 7.4h-5.4v28.3h5.4V59.1zm20.6-7.4h7.4v43.1h-7.4V51.7zm40.3 0v43.1h-7.4L227.4 76v18.8H220V51.7h7.3l5.4 17.7V51.7h7.5zm28.4 17.8a4.6 4.6 0 0 1 4.6 4.6v16.2a4.6 4.6 0 0 1-4.6 4.6h-11.1a4.6 4.6 0 0 1-4.6-4.6v-8.9l7.4-1.7v7.7h5.4V76.9h-8.2a4.5 4.5 0 0 1-4.6-4.6v-16a4.5 4.5 0 0 1 4.6-4.6h11.1a4.6 4.6 0 0 1 4.6 4.6V65l-7.5 1.7v-7.6h-5.4v10.4h8.3zm31.6 3.7l6.9 21.6h-7.5v-.2l-5.5-17.7h-.7v17.9H286V51.7h7.4v17.8h.6l5.7-17.8h7.5zm19-21.5h7.4v43.1h-7.4V51.7z" fill="#fff"/></symbol><symbol id="mustache-icon" viewBox="0 0 45 12.9"><title>mustache-icon</title><path d="M22.5 8.2a10.5 10.5 0 0 0 8.8 4.7c7.1.3 13.7-5.2 13.7-7.3-2.8 2.5-7.4 2.7-10 1.7S31.9 2.8 29.2.9a5.1 5.1 0 0 0-5.7 0l-1 .8-1-.8a5.1 5.1 0 0 0-5.7 0c-2.8 2-2.1 4.9-5.9 6.4S2.8 8.1 0 5.6c0 2.1 6.5 7.6 13.7 7.3a10.5 10.5 0 0 0 8.8-4.7z" fill="#826550"/></symbol><symbol id="scissors-icon" viewBox="0 0 21 20"><title>scissors-icon</title><path d="M8 4a4 4 0 1 0-4 4 2.9 2.9 0 0 0 1.6-.4L8 10l-2.4 2.4A2.9 2.9 0 0 0 4 12a4 4 0 1 0 4 4 2.9 2.9 0 0 0-.4-1.6L10 12l7 7h4L7.6 5.6A2.9 2.9 0 0 0 8 4zM4 6a2 2 0 1 1 2-2 2 2 0 0 1-2 2zm0 12a2 2 0 1 1 2-2 2 2 0 0 1-2 2zm6-8.5a.5.5 0 1 1-.5.5.5.5 0 0 1 .5-.5zM21 1h-4l-6 6 2 2 8-8z" fill="#826550"/></symbol><symbol id="tick" viewBox="0 0 21.7 16.1"><title>tick</title><path d="M21.4.3a1 1 0 0 0-1.4 0L6.7 13.7 1.8 8.8a1 1 0 0 0-1.4 0 1 1 0 0 0 0 1.4L6 15.8a1 1 0 0 0 .7.3 1 1 0 0 0 .7-.3l14-14.1a1 1 0 0 0 0-1.4z"/></symbol><symbol id="user" viewBox="0 0 14.969 15"><path data-name="User copy 2" class="cls-1" d="M6.837.227a1.577 1.577 0 0 0-.721.269 1.75 1.75 0 0 0-.786.046 1.83 1.83 0 0 0-1.18 1.619c-.04.394-.05 1.5-.023 2.1.08.356-.2.356-.2.356-.5-.033-.278 1.516-.278 1.516a.814.814 0 0 0 .722.866 3.173 3.173 0 0 0 1.286 1.526s0 .616.018 1.072c-.076-.037.26 1.165-2.062 1.5s-2.766 1.077-3.2 1.489-.421 2.41-.421 2.41L14.969 15s-.112-2-.549-2.417-.915-1.152-3.236-1.489c-2.257-.321-1.886-1.507-1.9-1.578 0-.179.028-.941.028-.941a3.91 3.91 0 0 0 1.145-1.61 1.322 1.322 0 0 0 .866-.8s.165-1.564-.364-1.556c0 0-.251.08-.171-.275a9.608 9.608 0 0 0 .014-1.86c-.041-.395.02-1.523-.822-1.681a5.162 5.162 0 0 0-.931-.041c-.281-.039-.615-.755-1.137-.755z"/></symbol></svg>